<?xml version="1.0" encoding="UTF-8"?>
<svg width="980px" height="200px" viewBox="0 0 980 200" version="1.1" xmlns="http://www.w3.org/2000/svg" xmlns:xlink="http://www.w3.org/1999/xlink">
    <!-- Generator: Sketch 49 (51002) - http://www.bohemiancoding.com/sketch -->
    <title>about-image</title>
    <desc>Created with Sketch.</desc>
    <defs></defs>
    <g id="about-image" stroke="none" stroke-width="1" fill="none" fill-rule="evenodd">
        <rect id="Rectangle-2" fill="#2C3E50" x="0" y="0" width="980" height="200"></rect>
        <path d="M396,118.576 L388.416,118.576 C387.6,116.944 386.736,115.552 385.344,113.44 L372.96,94.768 C372.048,93.328 370.848,91.264 369.696,89.008 C369.744,89.68 369.744,89.68 369.888,91.456 C369.936,92.368 370.032,94.528 370.032,95.632 L370.032,111.376 C370.032,114.592 370.176,116.848 370.416,118.576 L363.408,118.576 C363.648,116.992 363.792,114.592 363.792,111.328 L363.792,86.56 C363.792,84.064 363.696,82.336 363.408,80.368 L370.896,80.368 C371.328,81.568 372.192,83.008 373.824,85.456 L385.968,103.744 C387.12,105.472 388.656,107.968 389.712,109.888 C389.52,108.016 389.376,105.136 389.376,103.12 L389.376,86.992 C389.376,84.16 389.28,82.192 388.992,80.368 L396,80.368 C395.712,82.288 395.616,84.064 395.616,86.992 L395.616,112.384 C395.616,115.072 395.712,116.896 396,118.576 Z M417.583998,119.488 C408.799998,119.488 403.231998,113.824 403.231998,104.848 C403.231998,95.92 408.799998,90.208 417.535998,90.208 C426.223998,90.208 431.743998,95.872 431.743998,104.752 C431.743998,113.632 426.127998,119.488 417.583998,119.488 Z M417.535998,95.2 C412.495998,95.2 409.423998,98.848 409.423998,104.848 C409.423998,110.752 412.495998,114.4 417.487998,114.4 C422.479998,114.4 425.551998,110.8 425.551998,104.944 C425.551998,98.752 422.623998,95.2 417.535998,95.2 Z M456.959995,80.368 L464.255995,80.368 C463.967995,82.192 463.871995,83.68 463.871995,86.56 L463.871995,112.384 C463.871995,115.216 463.967995,116.752 464.255995,118.576 L456.959995,118.576 C457.247995,116.752 457.343995,115.216 457.343995,112.384 L457.343995,86.56 C457.343995,83.584 457.247995,82.288 456.959995,80.368 Z M479.359993,118.576 L472.591993,118.576 C472.831993,116.512 472.927993,114.928 472.927993,112.336 L472.927993,97.264 C472.927993,94.24 472.831993,92.848 472.591993,91.024 L479.023993,91.024 L479.023993,93.472 C479.023993,93.76 479.023993,94.48 478.975993,95.248 C480.367993,92.32 483.919993,90.448 487.903993,90.448 C490.495993,90.448 492.607993,91.168 494.095993,92.608 C494.959993,93.376 495.343993,94 495.919993,95.488 C497.551993,93.328 498.463993,92.464 499.951993,91.696 C501.535993,90.832 503.167993,90.448 505.327993,90.448 C508.399993,90.448 510.895993,91.408 512.527993,93.184 C514.111993,94.912 514.783993,97.072 514.783993,100.48 L514.783993,112.336 C514.783993,115.024 514.879993,116.608 515.167993,118.576 L508.159993,118.576 C508.447993,116.608 508.543993,115.168 508.543993,112.336 L508.543993,101.584 C508.543993,97.36 507.055993,95.44 503.839993,95.44 C502.255993,95.44 501.055993,95.872 499.903993,96.88 C498.223993,98.32 497.455993,99.856 496.879993,102.832 L496.879993,112.336 C496.879993,114.976 496.975993,116.608 497.215993,118.576 L490.303993,118.576 C490.591993,116.56 490.687993,115.072 490.687993,112.336 L490.687993,101.584 C490.687993,97.552 489.151993,95.536 486.031993,95.536 C484.015993,95.536 482.383993,96.352 481.087993,98.032 C480.031993,99.424 479.551993,100.528 479.023993,102.832 L479.023993,112.336 C479.023993,114.928 479.119993,116.368 479.359993,118.576 Z M541.311991,118.576 L541.311991,115.456 C539.391991,117.28 538.191991,117.952 536.223991,118.48 C534.831991,118.864 533.295991,119.056 531.759991,119.056 C525.903991,119.056 522.351991,116.032 522.351991,110.992 C522.351991,107.632 524.463991,104.608 527.775991,103.216 C530.895991,101.92 534.447991,101.44 541.311991,101.296 L541.311991,98.848 C541.311991,96.064 539.439991,94.624 535.791991,94.624 C533.871991,94.624 531.903991,95.152 530.799991,96.016 C529.887991,96.688 529.455991,97.36 528.879991,99.088 L522.735991,97.984 C523.839991,95.2 524.703991,93.952 526.527991,92.656 C528.879991,90.928 531.567991,90.208 535.695991,90.208 C540.303991,90.208 543.087991,91.024 545.151991,93.04 C546.783991,94.576 547.407991,96.4 547.407991,99.664 L547.407991,112.576 C547.407991,115.12 547.503991,116.416 547.791991,118.576 L541.311991,118.576 Z M541.311991,107.872 L541.311991,105.472 C532.143991,105.664 528.543991,107.248 528.543991,110.992 C528.543991,113.248 530.223991,114.64 532.911991,114.64 C535.455991,114.64 537.951991,113.68 539.583991,112.096 C540.735991,110.944 541.311991,109.552 541.311991,107.872 Z M554.927989,122.992 L559.727989,119.68 C561.599989,122.272 563.711989,123.328 567.167989,123.328 C570.863989,123.328 573.695989,122.032 575.039989,119.728 C575.855989,118.288 576.191989,116.608 576.287989,113.344 C573.887989,116.368 571.055989,117.712 566.879989,117.712 C559.247989,117.712 554.351989,112.48 554.351989,104.272 C554.351989,95.968 559.391989,90.592 567.167989,90.592 C571.439989,90.592 574.271989,91.888 576.335989,94.816 C576.239989,93.856 576.239989,93.76 576.239989,93.232 L576.239989,91.024 L582.671989,91.024 C582.431989,93.088 582.335989,94.432 582.335989,97.024 L582.335989,113.104 C582.335989,118.864 581.087989,122.56 578.303989,124.912 C575.903989,126.88 571.919989,127.984 566.975989,127.984 C561.359989,127.984 558.191989,126.688 554.927989,122.992 Z M560.639989,104.416 C560.639989,107.248 561.407989,109.6 562.847989,111.04 C564.047989,112.336 566.111989,113.2 567.935989,113.2 C570.575989,113.2 573.263989,111.664 574.607989,109.408 C575.519989,107.92 575.951989,106.144 575.951989,103.936 C575.951989,100.864 574.991989,98.464 573.071989,96.832 C571.727989,95.728 570.143989,95.104 568.415989,95.104 C563.615989,95.104 560.639989,98.704 560.639989,104.416 Z M616.543987,106.384 L595.663987,106.384 C595.903987,109.024 596.335987,110.368 597.439987,111.76 C598.831987,113.488 600.991987,114.448 603.439987,114.448 C605.791987,114.448 607.807987,113.584 609.199987,112.048 C609.775987,111.376 610.111987,110.848 610.591987,109.552 L616.255987,111.376 C615.151987,113.68 614.527987,114.592 613.327987,115.792 C610.831987,118.24 607.471987,119.488 603.439987,119.488 C594.943987,119.488 589.567987,113.824 589.567987,104.848 C589.567987,95.968 594.895987,90.16 603.103987,90.16 C608.719987,90.16 613.135987,92.944 615.055987,97.744 C615.967987,100.048 616.303987,101.776 616.447987,105.04 C616.447987,105.136 616.447987,105.28 616.543987,106.384 Z M595.807987,101.632 L610.303987,101.632 C609.967987,99.52 609.391987,98.224 608.191987,97.024 C606.895987,95.728 605.263987,95.104 603.007987,95.104 C599.263987,95.104 596.527987,97.6 595.807987,101.632 Z" id="No-Image" fill="#FFFFFF"></path>
    </g>
</svg>