<?xml version="1.0" encoding="UTF-8"?>
<svg width="1280px" height="700px" viewBox="0 0 1280 700" version="1.1" xmlns="http://www.w3.org/2000/svg" xmlns:xlink="http://www.w3.org/1999/xlink">
    <!-- Generator: Sketch 49 (51002) - http://www.bohemiancoding.com/sketch -->
    <title>Artboard</title>
    <desc>Created with Sketch.</desc>
    <defs></defs>
    <g id="Artboard" stroke="none" stroke-width="1" fill="none" fill-rule="evenodd">
        <g id="Group">
            <rect id="Rectangle" fill="#34495E" x="0" y="0" width="1280" height="700"></rect>
            <path d="M422.496,334.296 L422.496,369 L416.808,369 L416.808,346.584 C416.808,345.687996 416.856,344.720005 416.952,343.68 L406.464,363.384 C405.967998,364.328005 405.208005,364.8 404.184,364.8 L403.272,364.8 C402.247995,364.8 401.488002,364.328005 400.992,363.384 L390.384,343.608 C390.432,344.136003 390.472,344.655997 390.504,345.168 C390.536,345.680003 390.552,346.151998 390.552,346.584 L390.552,369 L384.864,369 L384.864,334.296 L389.736,334.296 C390.024001,334.296 390.271999,334.304 390.48,334.32 C390.688001,334.336 390.875999,334.376 391.044,334.44 C391.212001,334.504 391.363999,334.607999 391.5,334.752 C391.636001,334.896001 391.767999,335.087999 391.896,335.328 L402.288,354.6 C402.560001,355.112003 402.811999,355.639997 403.044,356.184 C403.276001,356.728003 403.503999,357.287997 403.728,357.864 C403.952001,357.271997 404.183999,356.700003 404.424,356.148 C404.664001,355.595997 404.919999,355.064003 405.192,354.552 L415.44,335.328 C415.568001,335.087999 415.703999,334.896001 415.848,334.752 C415.992001,334.607999 416.147999,334.504 416.316,334.44 C416.484001,334.376 416.671999,334.336 416.88,334.32 C417.088001,334.304 417.335999,334.296 417.624,334.296 L422.496,334.296 Z M453.151998,344.376 L439.735998,375.768 C439.559997,376.184002 439.332,376.499999 439.051998,376.716 C438.771997,376.932001 438.344001,377.04 437.767998,377.04 L433.351998,377.04 L437.959998,367.152 L427.999998,344.376 L433.207998,344.376 C433.672001,344.376 434.035997,344.487999 434.299998,344.712 C434.564,344.936001 434.759998,345.191999 434.887998,345.48 L440.119998,358.248 C440.295999,358.680002 440.443998,359.111998 440.563998,359.544 C440.683999,359.976002 440.799998,360.415998 440.911998,360.864 C441.055999,360.415998 441.199997,359.972002 441.343998,359.532 C441.487999,359.091998 441.647997,358.656002 441.823998,358.224 L446.767998,345.48 C446.895999,345.159998 447.107997,344.896001 447.403998,344.688 C447.7,344.479999 448.031996,344.376 448.399998,344.376 L453.151998,344.376 Z M472.623996,349.176 C472.463996,349.432001 472.295997,349.611999 472.119996,349.716 C471.943996,349.820001 471.719998,349.872 471.447996,349.872 C471.159995,349.872 470.851998,349.792001 470.523996,349.632 C470.195995,349.471999 469.815999,349.292001 469.383996,349.092 C468.951994,348.891999 468.459999,348.712001 467.907996,348.552 C467.355994,348.391999 466.704,348.312 465.951996,348.312 C464.783991,348.312 463.868,348.559998 463.203996,349.056 C462.539993,349.552002 462.207996,350.199996 462.207996,351 C462.207996,351.528003 462.379995,351.971998 462.723996,352.332 C463.067998,352.692002 463.523994,353.007999 464.091996,353.28 C464.659999,353.552001 465.303993,353.795999 466.023996,354.012 C466.744,354.228001 467.475993,354.463999 468.219996,354.72 C468.964,354.976001 469.695993,355.267998 470.415996,355.596 C471.136,355.924002 471.779994,356.339997 472.347996,356.844 C472.915999,357.348003 473.371995,357.951996 473.715996,358.656 C474.059998,359.360004 474.231996,360.207995 474.231996,361.2 C474.231996,362.384006 474.019999,363.475995 473.595996,364.476 C473.171994,365.476005 472.544001,366.339996 471.711996,367.068 C470.879992,367.796004 469.852003,368.363998 468.627996,368.772 C467.40399,369.180002 465.992004,369.384 464.391996,369.384 C463.543992,369.384 462.716,369.308001 461.907996,369.156 C461.099992,369.003999 460.324,368.792001 459.579996,368.52 C458.835993,368.247999 458.148,367.928002 457.515996,367.56 C456.883993,367.191998 456.327999,366.792002 455.847996,366.36 L457.215996,364.104 C457.391997,363.831999 457.599995,363.624001 457.839996,363.48 C458.079998,363.335999 458.383995,363.264 458.751996,363.264 C459.119998,363.264 459.467995,363.367999 459.795996,363.576 C460.123998,363.784001 460.503994,364.007999 460.935996,364.248 C461.367999,364.488001 461.875994,364.711999 462.459996,364.92 C463.043999,365.128001 463.783992,365.232 464.679996,365.232 C465.384,365.232 465.987994,365.148001 466.491996,364.98 C466.995999,364.811999 467.411995,364.592001 467.739996,364.32 C468.067998,364.047999 468.307996,363.732002 468.459996,363.372 C468.611997,363.011998 468.687996,362.640002 468.687996,362.256 C468.687996,361.679997 468.515998,361.208002 468.171996,360.84 C467.827995,360.471998 467.371999,360.152001 466.803996,359.88 C466.235994,359.607999 465.588,359.364001 464.859996,359.148 C464.131993,358.931999 463.388,358.696001 462.627996,358.44 C461.867993,358.183999 461.124,357.884002 460.395996,357.54 C459.667993,357.195998 459.019999,356.760003 458.451996,356.232 C457.883994,355.703997 457.427998,355.056004 457.083996,354.288 C456.739995,353.519996 456.567996,352.592005 456.567996,351.504 C456.567996,350.495995 456.767994,349.536005 457.167996,348.624 C457.567998,347.711995 458.155993,346.916003 458.931996,346.236 C459.708,345.555997 460.675991,345.012002 461.835996,344.604 C462.996002,344.195998 464.335989,343.992 465.855996,343.992 C467.552005,343.992 469.095989,344.271997 470.487996,344.832 C471.880003,345.392003 473.039992,346.127995 473.967996,347.04 L472.623996,349.176 Z M486.839995,344.376 L486.839995,369 L480.887995,369 L480.887995,344.376 L486.839995,344.376 Z M487.655995,337.2 C487.655995,337.712003 487.551996,338.191998 487.343995,338.64 C487.135994,339.088002 486.859996,339.479998 486.515995,339.816 C486.171993,340.152002 485.767997,340.419999 485.303995,340.62 C484.839992,340.820001 484.343997,340.92 483.815995,340.92 C483.303992,340.92 482.819997,340.820001 482.363995,340.62 C481.907992,340.419999 481.511996,340.152002 481.175995,339.816 C480.839993,339.479998 480.571996,339.088002 480.371995,338.64 C480.171994,338.191998 480.071995,337.712003 480.071995,337.2 C480.071995,336.671997 480.171994,336.176002 480.371995,335.712 C480.571996,335.247998 480.839993,334.848002 481.175995,334.512 C481.511996,334.175998 481.907992,333.908001 482.363995,333.708 C482.819997,333.507999 483.303992,333.408 483.815995,333.408 C484.343997,333.408 484.839992,333.507999 485.303995,333.708 C485.767997,333.908001 486.171993,334.175998 486.515995,334.512 C486.859996,334.848002 487.135994,335.247998 487.343995,335.712 C487.551996,336.176002 487.655995,336.671997 487.655995,337.2 Z M503.095993,369.384 C500.951982,369.384 499.307999,368.780006 498.163993,367.572 C497.019987,366.363994 496.447993,364.696011 496.447993,362.568 L496.447993,348.816 L493.927993,348.816 C493.607991,348.816 493.335994,348.712001 493.111993,348.504 C492.887992,348.295999 492.775993,347.984002 492.775993,347.568 L492.775993,345.216 L496.735993,344.568 L497.983993,337.848 C498.063993,337.527998 498.215992,337.280001 498.439993,337.104 C498.663994,336.927999 498.951991,336.84 499.303993,336.84 L502.375993,336.84 L502.375993,344.592 L508.951993,344.592 L508.951993,348.816 L502.375993,348.816 L502.375993,362.16 C502.375993,362.928004 502.563991,363.527998 502.939993,363.96 C503.315995,364.392002 503.83199,364.608 504.487993,364.608 C504.855995,364.608 505.163992,364.564 505.411993,364.476 C505.659994,364.388 505.875992,364.296 506.059993,364.2 C506.243994,364.104 506.407992,364.012 506.551993,363.924 C506.695994,363.836 506.839992,363.792 506.983993,363.792 C507.159994,363.792 507.303992,363.836 507.415993,363.924 C507.527993,364.012 507.647992,364.143999 507.775993,364.32 L509.551993,367.2 C508.687989,367.920004 507.695998,368.463998 506.575993,368.832 C505.455987,369.200002 504.295999,369.384 503.095993,369.384 Z M530.415991,353.856 C530.415991,353.087996 530.307992,352.364003 530.091991,351.684 C529.87599,351.003997 529.551993,350.408003 529.119991,349.896 C528.687989,349.383997 528.139994,348.980001 527.475991,348.684 C526.811988,348.387999 526.039995,348.24 525.159991,348.24 C523.447982,348.24 522.099996,348.727995 521.115991,349.704 C520.131986,350.680005 519.503992,352.063991 519.231991,353.856 L530.415991,353.856 Z M519.111991,357.432 C519.207992,358.696006 519.431989,359.787995 519.783991,360.708 C520.135993,361.628005 520.599988,362.387997 521.175991,362.988 C521.751994,363.588003 522.435987,364.035999 523.227991,364.332 C524.019995,364.628001 524.895986,364.776 525.855991,364.776 C526.815996,364.776 527.643988,364.664001 528.339991,364.44 C529.035995,364.215999 529.643988,363.968001 530.163991,363.696 C530.683994,363.423999 531.139989,363.176001 531.531991,362.952 C531.923993,362.727999 532.303989,362.616 532.671991,362.616 C533.167994,362.616 533.53599,362.799998 533.775991,363.168 L535.479991,365.328 C534.823988,366.096004 534.087995,366.739997 533.271991,367.26 C532.455987,367.780003 531.603995,368.195998 530.715991,368.508 C529.827987,368.820002 528.923996,369.039999 528.003991,369.168 C527.083986,369.296001 526.191995,369.36 525.327991,369.36 C523.615982,369.36 522.023998,369.076003 520.551991,368.508 C519.079984,367.939997 517.799996,367.100006 516.711991,365.988 C515.623986,364.875994 514.767994,363.500008 514.143991,361.86 C513.519988,360.219992 513.207991,358.320011 513.207991,356.16 C513.207991,354.479992 513.479988,352.900007 514.023991,351.42 C514.567994,349.939993 515.347986,348.652005 516.363991,347.556 C517.379996,346.459995 518.619984,345.592003 520.083991,344.952 C521.547998,344.311997 523.199982,343.992 525.039991,343.992 C526.591999,343.992 528.023984,344.239998 529.335991,344.736 C530.647998,345.232002 531.775986,345.955995 532.719991,346.908 C533.663996,347.860005 534.403988,349.027993 534.939991,350.412 C535.475994,351.796007 535.743991,353.375991 535.743991,355.152 C535.743991,356.048004 535.647992,356.651998 535.455991,356.964 C535.26399,357.276002 534.895994,357.432 534.351991,357.432 L519.111991,357.432 Z M561.991987,344.376 L561.991987,369 L556.039987,369 L556.039987,344.376 L561.991987,344.376 Z M562.807987,337.2 C562.807987,337.712003 562.703989,338.191998 562.495987,338.64 C562.287986,339.088002 562.011989,339.479998 561.667987,339.816 C561.323986,340.152002 560.91999,340.419999 560.455987,340.62 C559.991985,340.820001 559.49599,340.92 558.967987,340.92 C558.455985,340.92 557.97199,340.820001 557.515987,340.62 C557.059985,340.419999 556.663989,340.152002 556.327987,339.816 C555.991986,339.479998 555.723988,339.088002 555.523987,338.64 C555.323986,338.191998 555.223987,337.712003 555.223987,337.2 C555.223987,336.671997 555.323986,336.176002 555.523987,335.712 C555.723988,335.247998 555.991986,334.848002 556.327987,334.512 C556.663989,334.175998 557.059985,333.908001 557.515987,333.708 C557.97199,333.507999 558.455985,333.408 558.967987,333.408 C559.49599,333.408 559.991985,333.507999 560.455987,333.708 C560.91999,333.908001 561.323986,334.175998 561.667987,334.512 C562.011989,334.848002 562.287986,335.247998 562.495987,335.712 C562.703989,336.176002 562.807987,336.671997 562.807987,337.2 Z M585.063986,349.176 C584.903985,349.432001 584.735987,349.611999 584.559986,349.716 C584.383985,349.820001 584.159987,349.872 583.887986,349.872 C583.599984,349.872 583.291987,349.792001 582.963986,349.632 C582.635984,349.471999 582.255988,349.292001 581.823986,349.092 C581.391984,348.891999 580.899988,348.712001 580.347986,348.552 C579.795983,348.391999 579.143989,348.312 578.391986,348.312 C577.22398,348.312 576.307989,348.559998 575.643986,349.056 C574.979982,349.552002 574.647986,350.199996 574.647986,351 C574.647986,351.528003 574.819984,351.971998 575.163986,352.332 C575.507987,352.692002 575.963983,353.007999 576.531986,353.28 C577.099989,353.552001 577.743982,353.795999 578.463986,354.012 C579.183989,354.228001 579.915982,354.463999 580.659986,354.72 C581.403989,354.976001 582.135982,355.267998 582.855986,355.596 C583.575989,355.924002 584.219983,356.339997 584.787986,356.844 C585.355989,357.348003 585.811984,357.951996 586.155986,358.656 C586.499987,359.360004 586.671986,360.207995 586.671986,361.2 C586.671986,362.384006 586.459988,363.475995 586.035986,364.476 C585.611984,365.476005 584.98399,366.339996 584.151986,367.068 C583.319982,367.796004 582.291992,368.363998 581.067986,368.772 C579.84398,369.180002 578.431994,369.384 576.831986,369.384 C575.983981,369.384 575.15599,369.308001 574.347986,369.156 C573.539982,369.003999 572.763989,368.792001 572.019986,368.52 C571.275982,368.247999 570.587989,367.928002 569.955986,367.56 C569.323983,367.191998 568.767988,366.792002 568.287986,366.36 L569.655986,364.104 C569.831987,363.831999 570.039984,363.624001 570.279986,363.48 C570.519987,363.335999 570.823984,363.264 571.191986,363.264 C571.559988,363.264 571.907984,363.367999 572.235986,363.576 C572.563987,363.784001 572.943984,364.007999 573.375986,364.248 C573.807988,364.488001 574.315983,364.711999 574.899986,364.92 C575.483989,365.128001 576.223981,365.232 577.119986,365.232 C577.823989,365.232 578.427983,365.148001 578.931986,364.98 C579.435988,364.811999 579.851984,364.592001 580.179986,364.32 C580.507987,364.047999 580.747985,363.732002 580.899986,363.372 C581.051986,363.011998 581.127986,362.640002 581.127986,362.256 C581.127986,361.679997 580.955987,361.208002 580.611986,360.84 C580.267984,360.471998 579.811989,360.152001 579.243986,359.88 C578.675983,359.607999 578.027989,359.364001 577.299986,359.148 C576.571982,358.931999 575.827989,358.696001 575.067986,358.44 C574.307982,358.183999 573.563989,357.884002 572.835986,357.54 C572.107982,357.195998 571.459989,356.760003 570.891986,356.232 C570.323983,355.703997 569.867987,355.056004 569.523986,354.288 C569.179984,353.519996 569.007986,352.592005 569.007986,351.504 C569.007986,350.495995 569.207984,349.536005 569.607986,348.624 C570.007988,347.711995 570.595982,346.916003 571.371986,346.236 C572.14799,345.555997 573.11598,345.012002 574.275986,344.604 C575.435991,344.195998 576.775978,343.992 578.295986,343.992 C579.991994,343.992 581.535979,344.271997 582.927986,344.832 C584.319993,345.392003 585.479981,346.127995 586.407986,347.04 L585.063986,349.176 Z M636.991982,334.296 L636.991982,369 L633.679982,369 C633.16798,369 632.739984,368.916001 632.395982,368.748 C632.05198,368.579999 631.719984,368.296002 631.399982,367.896 L613.279982,344.76 C613.375983,345.816005 613.423982,346.791996 613.423982,347.688 L613.423982,369 L607.735982,369 L607.735982,334.296 L611.119982,334.296 C611.391983,334.296 611.627981,334.308 611.827982,334.332 C612.027983,334.356 612.203981,334.404 612.355982,334.476 C612.507983,334.548 612.655981,334.651999 612.799982,334.788 C612.943983,334.924001 613.103981,335.103999 613.279982,335.328 L631.471982,358.56 C631.423982,357.999997 631.383982,357.448003 631.351982,356.904 C631.319982,356.359997 631.303982,355.856002 631.303982,355.392 L631.303982,334.296 L636.991982,334.296 Z M666.54398,344.376 L666.54398,369 L662.91998,369 C662.135976,369 661.639981,368.640004 661.43198,367.92 L661.02398,365.952 C660.015975,366.976005 658.903986,367.803997 657.68798,368.436 C656.471974,369.068003 655.039989,369.384 653.39198,369.384 C652.047974,369.384 650.859985,369.156002 649.82798,368.7 C648.795975,368.243998 647.927984,367.600004 647.22398,366.768 C646.519977,365.935996 645.987982,364.948006 645.62798,363.804 C645.267979,362.659994 645.08798,361.400007 645.08798,360.024 L645.08798,344.376 L651.01598,344.376 L651.01598,360.024 C651.01598,361.528008 651.363977,362.691996 652.05998,363.516 C652.755984,364.340004 653.799973,364.752 655.19198,364.752 C656.215985,364.752 657.175976,364.524002 658.07198,364.068 C658.967985,363.611998 659.815976,362.984004 660.61598,362.184 L660.61598,344.376 L666.54398,344.376 Z M696.383979,369 L690.671979,369 C690.239976,369 689.89198,368.888001 689.627979,368.664 C689.363977,368.439999 689.143979,368.184001 688.967979,367.896 L683.759979,359.328 C683.679978,359.600001 683.587979,359.855999 683.483979,360.096 C683.379978,360.336001 683.263979,360.559999 683.135979,360.768 L678.527979,367.896 C678.351978,368.168001 678.13598,368.419999 677.879979,368.652 C677.623977,368.884001 677.30398,369 676.919979,369 L671.615979,369 L680.063979,356.304 L671.951979,344.376 L677.663979,344.376 C678.095981,344.376 678.415978,344.435999 678.623979,344.556 C678.83198,344.676001 679.015978,344.871999 679.175979,345.144 L684.335979,353.352 C684.511979,352.807997 684.759977,352.272003 685.079979,351.744 L689.231979,345.264 C689.58398,344.671997 690.039976,344.376 690.599979,344.376 L696.047979,344.376 L687.959979,356.04 L696.383979,369 Z M709.663977,369.384 C707.519966,369.384 705.875982,368.780006 704.731977,367.572 C703.587971,366.363994 703.015977,364.696011 703.015977,362.568 L703.015977,348.816 L700.495977,348.816 C700.175975,348.816 699.903978,348.712001 699.679977,348.504 C699.455976,348.295999 699.343977,347.984002 699.343977,347.568 L699.343977,345.216 L703.303977,344.568 L704.551977,337.848 C704.631977,337.527998 704.783976,337.280001 705.007977,337.104 C705.231978,336.927999 705.519975,336.84 705.871977,336.84 L708.943977,336.84 L708.943977,344.592 L715.519977,344.592 L715.519977,348.816 L708.943977,348.816 L708.943977,362.16 C708.943977,362.928004 709.131975,363.527998 709.507977,363.96 C709.883979,364.392002 710.399973,364.608 711.055977,364.608 C711.423979,364.608 711.731976,364.564 711.979977,364.476 C712.227978,364.388 712.443976,364.296 712.627977,364.2 C712.811978,364.104 712.975976,364.012 713.119977,363.924 C713.263977,363.836 713.407976,363.792 713.551977,363.792 C713.727978,363.792 713.871976,363.836 713.983977,363.924 C714.095977,364.012 714.215976,364.143999 714.343977,364.32 L716.119977,367.2 C715.255972,367.920004 714.263982,368.463998 713.143977,368.832 C712.023971,369.200002 710.863983,369.384 709.663977,369.384 Z M747.191973,351.744 C748.375979,351.744 749.407969,351.596001 750.287973,351.3 C751.167978,351.003999 751.89997,350.580003 752.483973,350.028 C753.067976,349.475997 753.503972,348.804004 753.791973,348.012 C754.079975,347.219996 754.223973,346.336005 754.223973,345.36 C754.223973,344.431995 754.079975,343.592004 753.791973,342.84 C753.503972,342.087996 753.071976,341.448003 752.495973,340.92 C751.91997,340.391997 751.191978,339.988001 750.311973,339.708 C749.431969,339.427999 748.391979,339.288 747.191973,339.288 L742.367973,339.288 L742.367973,351.744 L747.191973,351.744 Z M747.191973,334.296 C749.511985,334.296 751.519965,334.567997 753.215973,335.112 C754.911982,335.656003 756.311968,336.415995 757.415973,337.392 C758.519979,338.368005 759.33997,339.535993 759.875973,340.896 C760.411976,342.256007 760.679973,343.743992 760.679973,345.36 C760.679973,347.040008 760.399976,348.579993 759.839973,349.98 C759.27997,351.380007 758.439979,352.583995 757.319973,353.592 C756.199968,354.600005 754.795982,355.383997 753.107973,355.944 C751.419965,356.504003 749.447984,356.784 747.191973,356.784 L742.367973,356.784 L742.367973,369 L735.911973,369 L735.911973,334.296 L747.191973,334.296 Z M771.895971,348.648 C772.663975,347.175993 773.575966,346.020004 774.631971,345.18 C775.687977,344.339996 776.935964,343.92 778.375971,343.92 C779.511977,343.92 780.423968,344.167998 781.111971,344.664 L780.727971,349.104 C780.647971,349.392001 780.531972,349.595999 780.379971,349.716 C780.227971,349.836001 780.023973,349.896 779.767971,349.896 C779.52797,349.896 779.171974,349.856 778.699971,349.776 C778.227969,349.696 777.767974,349.656 777.319971,349.656 C776.663968,349.656 776.079974,349.751999 775.567971,349.944 C775.055969,350.136001 774.595973,350.411998 774.187971,350.772 C773.779969,351.132002 773.419973,351.567997 773.107971,352.08 C772.79597,352.592003 772.503973,353.175997 772.231971,353.832 L772.231971,369 L766.303971,369 L766.303971,344.376 L769.783971,344.376 C770.391974,344.376 770.81597,344.483999 771.055971,344.7 C771.295973,344.916001 771.455971,345.303997 771.535971,345.864 L771.895971,348.648 Z M796.40797,343.992 C798.231979,343.992 799.891962,344.287997 801.38797,344.88 C802.883977,345.472003 804.163964,346.311995 805.22797,347.4 C806.291975,348.488005 807.111967,349.815992 807.68797,351.384 C808.263972,352.952008 808.55197,354.70399 808.55197,356.64 C808.55197,358.59201 808.263972,360.351992 807.68797,361.92 C807.111967,363.488008 806.291975,364.823994 805.22797,365.928 C804.163964,367.032006 802.883977,367.879997 801.38797,368.472 C799.891962,369.064003 798.231979,369.36 796.40797,369.36 C794.56796,369.36 792.895977,369.064003 791.39197,368.472 C789.887962,367.879997 788.603975,367.032006 787.53997,365.928 C786.475964,364.823994 785.651973,363.488008 785.06797,361.92 C784.483967,360.351992 784.19197,358.59201 784.19197,356.64 C784.19197,354.70399 784.483967,352.952008 785.06797,351.384 C785.651973,349.815992 786.475964,348.488005 787.53997,347.4 C788.603975,346.311995 789.887962,345.472003 791.39197,344.88 C792.895977,344.287997 794.56796,343.992 796.40797,343.992 Z M796.40797,364.8 C798.45598,364.8 799.971965,364.112007 800.95597,362.736 C801.939975,361.359993 802.43197,359.344013 802.43197,356.688 C802.43197,354.031987 801.939975,352.008007 800.95597,350.616 C799.971965,349.223993 798.45598,348.528 796.40797,348.528 C794.327959,348.528 792.787975,349.227993 791.78797,350.628 C790.787965,352.028007 790.28797,354.047987 790.28797,356.688 C790.28797,359.328013 790.787965,361.339993 791.78797,362.724 C792.787975,364.108007 794.327959,364.8 796.40797,364.8 Z M821.231968,344.376 L821.231968,369.84 C821.231968,370.912005 821.091969,371.919995 820.811968,372.864 C820.531966,373.808005 820.083971,374.635996 819.467968,375.348 C818.851965,376.060004 818.043973,376.619998 817.043968,377.028 C816.043963,377.436002 814.823975,377.64 813.383968,377.64 C812.823965,377.64 812.30397,377.604 811.823968,377.532 C811.343965,377.46 810.84797,377.344001 810.335968,377.184 L810.551968,373.992 C810.599968,373.671998 810.727967,373.468 810.935968,373.38 C811.143969,373.292 811.543965,373.248 812.135968,373.248 C812.727971,373.248 813.227966,373.188001 813.635968,373.068 C814.04397,372.947999 814.367967,372.756001 814.607968,372.492 C814.847969,372.227999 815.019967,371.880002 815.123968,371.448 C815.227968,371.015998 815.279968,370.480003 815.279968,369.84 L815.279968,344.376 L821.231968,344.376 Z M822.047968,337.2 C822.047968,337.712003 821.943969,338.191998 821.735968,338.64 C821.527967,339.088002 821.25197,339.479998 820.907968,339.816 C820.563966,340.152002 820.15597,340.419999 819.683968,340.62 C819.211965,340.820001 818.71197,340.92 818.183968,340.92 C817.671965,340.92 817.19197,340.820001 816.743968,340.62 C816.295966,340.419999 815.903969,340.152002 815.567968,339.816 C815.231966,339.479998 814.963969,339.088002 814.763968,338.64 C814.563967,338.191998 814.463968,337.712003 814.463968,337.2 C814.463968,336.671997 814.563967,336.176002 814.763968,335.712 C814.963969,335.247998 815.231966,334.848002 815.567968,334.512 C815.903969,334.175998 816.295966,333.908001 816.743968,333.708 C817.19197,333.507999 817.671965,333.408 818.183968,333.408 C818.71197,333.408 819.211965,333.507999 819.683968,333.708 C820.15597,333.908001 820.563966,334.175998 820.907968,334.512 C821.25197,334.848002 821.527967,335.247998 821.735968,335.712 C821.943969,336.176002 822.047968,336.671997 822.047968,337.2 Z M845.143966,353.856 C845.143966,353.087996 845.035967,352.364003 844.819966,351.684 C844.603965,351.003997 844.279968,350.408003 843.847966,349.896 C843.415964,349.383997 842.867969,348.980001 842.203966,348.684 C841.539963,348.387999 840.76797,348.24 839.887966,348.24 C838.175957,348.24 836.827971,348.727995 835.843966,349.704 C834.859961,350.680005 834.231967,352.063991 833.959966,353.856 L845.143966,353.856 Z M833.839966,357.432 C833.935967,358.696006 834.159964,359.787995 834.511966,360.708 C834.863968,361.628005 835.327963,362.387997 835.903966,362.988 C836.479969,363.588003 837.163962,364.035999 837.955966,364.332 C838.74797,364.628001 839.623961,364.776 840.583966,364.776 C841.543971,364.776 842.371963,364.664001 843.067966,364.44 C843.76397,364.215999 844.371963,363.968001 844.891966,363.696 C845.411969,363.423999 845.867964,363.176001 846.259966,362.952 C846.651968,362.727999 847.031964,362.616 847.399966,362.616 C847.895969,362.616 848.263965,362.799998 848.503966,363.168 L850.207966,365.328 C849.551963,366.096004 848.81597,366.739997 847.999966,367.26 C847.183962,367.780003 846.33197,368.195998 845.443966,368.508 C844.555962,368.820002 843.651971,369.039999 842.731966,369.168 C841.811961,369.296001 840.91997,369.36 840.055966,369.36 C838.343957,369.36 836.751973,369.076003 835.279966,368.508 C833.807959,367.939997 832.527971,367.100006 831.439966,365.988 C830.351961,364.875994 829.495969,363.500008 828.871966,361.86 C828.247963,360.219992 827.935966,358.320011 827.935966,356.16 C827.935966,354.479992 828.207963,352.900007 828.751966,351.42 C829.295969,349.939993 830.075961,348.652005 831.091966,347.556 C832.107971,346.459995 833.347959,345.592003 834.811966,344.952 C836.275973,344.311997 837.927957,343.992 839.767966,343.992 C841.319974,343.992 842.751959,344.239998 844.063966,344.736 C845.375973,345.232002 846.503961,345.955995 847.447966,346.908 C848.391971,347.860005 849.131963,349.027993 849.667966,350.412 C850.203969,351.796007 850.471966,353.375991 850.471966,355.152 C850.471966,356.048004 850.375967,356.651998 850.183966,356.964 C849.991965,357.276002 849.623969,357.432 849.079966,357.432 L833.839966,357.432 Z M874.551964,349.584 C874.375963,349.808001 874.203965,349.983999 874.035964,350.112 C873.867963,350.240001 873.623966,350.304 873.303964,350.304 C872.999963,350.304 872.703966,350.212001 872.415964,350.028 C872.127963,349.843999 871.783966,349.636001 871.383964,349.404 C870.983962,349.171999 870.507967,348.964001 869.955964,348.78 C869.403961,348.595999 868.719968,348.504 867.903964,348.504 C866.863959,348.504 865.951968,348.691998 865.167964,349.068 C864.38396,349.444002 863.731967,349.983996 863.211964,350.688 C862.691962,351.392004 862.303966,352.243995 862.047964,353.244 C861.791963,354.244005 861.663964,355.375994 861.663964,356.64 C861.663964,357.952007 861.803963,359.119995 862.083964,360.144 C862.363966,361.168005 862.767962,362.027997 863.295964,362.724 C863.823967,363.420003 864.46396,363.947998 865.215964,364.308 C865.967968,364.668002 866.81596,364.848 867.759964,364.848 C868.703969,364.848 869.467961,364.732001 870.051964,364.5 C870.635967,364.267999 871.127962,364.012001 871.527964,363.732 C871.927966,363.451999 872.275963,363.196001 872.571964,362.964 C872.867966,362.731999 873.199962,362.616 873.567964,362.616 C874.047967,362.616 874.407963,362.799998 874.647964,363.168 L876.351964,365.328 C875.695961,366.096004 874.983968,366.739997 874.215964,367.26 C873.44796,367.780003 872.651968,368.195998 871.827964,368.508 C871.00396,368.820002 870.155969,369.039999 869.283964,369.168 C868.41196,369.296001 867.543969,369.36 866.679964,369.36 C865.159957,369.36 863.727971,369.076003 862.383964,368.508 C861.039958,367.939997 859.863969,367.112005 858.855964,366.024 C857.847959,364.935995 857.051967,363.604008 856.467964,362.028 C855.883961,360.451992 855.591964,358.65601 855.591964,356.64 C855.591964,354.831991 855.851962,353.156008 856.371964,351.612 C856.891967,350.067992 857.655959,348.732006 858.663964,347.604 C859.671969,346.475994 860.919957,345.592003 862.407964,344.952 C863.895972,344.311997 865.607955,343.992 867.543964,343.992 C869.383973,343.992 870.995957,344.287997 872.379964,344.88 C873.763971,345.472003 875.007959,346.319994 876.111964,347.424 L874.551964,349.584 Z M890.255962,369.384 C888.111952,369.384 886.467968,368.780006 885.323962,367.572 C884.179957,366.363994 883.607962,364.696011 883.607962,362.568 L883.607962,348.816 L881.087962,348.816 C880.767961,348.816 880.495964,348.712001 880.271962,348.504 C880.047961,348.295999 879.935962,347.984002 879.935962,347.568 L879.935962,345.216 L883.895962,344.568 L885.143962,337.848 C885.223963,337.527998 885.375961,337.280001 885.599962,337.104 C885.823964,336.927999 886.111961,336.84 886.463962,336.84 L889.535962,336.84 L889.535962,344.592 L896.111962,344.592 L896.111962,348.816 L889.535962,348.816 L889.535962,362.16 C889.535962,362.928004 889.723961,363.527998 890.099962,363.96 C890.475964,364.392002 890.991959,364.608 891.647962,364.608 C892.015964,364.608 892.323961,364.564 892.571962,364.476 C892.819964,364.388 893.035962,364.296 893.219962,364.2 C893.403963,364.104 893.567962,364.012 893.711962,363.924 C893.855963,363.836 893.999962,363.792 894.143962,363.792 C894.319963,363.792 894.463962,363.836 894.575962,363.924 C894.687963,364.012 894.807962,364.143999 894.935962,364.32 L896.711962,367.2 C895.847958,367.920004 894.855968,368.463998 893.735962,368.832 C892.615957,369.200002 891.455968,369.384 890.255962,369.384 Z" id="Mysite-is-Nuxt-Proje" fill="#FFFFFF"></path>
        </g>
    </g>
</svg>