<?xml version="1.0" encoding="UTF-8"?>
<svg width="80px" height="63px" viewBox="0 0 80 63" version="1.1" xmlns="http://www.w3.org/2000/svg" xmlns:xlink="http://www.w3.org/1999/xlink">
    <!-- Generator: Sketch 49 (51002) - http://www.bohemiancoding.com/sketch -->
    <title>envelope</title>
    <desc>Created with Sketch.</desc>
    <defs></defs>
    <g id="Page-1" stroke="none" stroke-width="1" fill="none" fill-rule="evenodd">
        <g id="PC" transform="translate(-280.000000, -3482.000000)" fill="#000000" fill-rule="nonzero">
            <g id="Contact" transform="translate(0.000000, 3178.000000)">
                <g id="mail" transform="translate(280.000000, 304.000000)">
                    <g id="envelope">
                        <path d="M7.67842135,19.3758429 C8.69041057,20.0899918 11.7409201,22.2110156 16.8301064,25.7378196 C21.919449,29.2646237 25.8182344,31.9801721 28.5266191,33.8846212 C28.8241802,34.0933773 29.4563607,34.5471675 30.4234734,35.2466175 C31.3907425,35.9465366 32.1944545,36.5121325 32.8339842,36.9435616 C33.4739829,37.3748343 34.2476731,37.8586479 35.1558365,38.3942205 C36.0636871,38.929324 36.9194685,39.3318243 37.7230242,39.5982815 C38.5267363,39.8669278 39.2707173,40 39.9551235,40 L40,40 L40.0450329,40 C40.7294391,40 41.4737328,39.8667714 42.2774449,39.5982815 C43.0806878,39.3318243 43.937251,38.9288549 44.8443199,38.3942205 C45.7518578,37.8580224 46.525548,37.374678 47.1655467,36.9435616 C47.8055455,36.5121325 48.6086321,35.9465366 49.5762139,35.2466175 C50.5431702,34.546542 51.1761326,34.0933773 51.4736937,33.8846212 C54.2113184,31.9801721 61.1762498,27.1434435 72.3662988,19.3749047 C74.5388233,17.8576315 76.3538991,16.0268334 77.8119955,13.8837612 C79.2711864,11.7416273 80,9.49441167 80,7.14336535 C80,5.17871314 79.2927646,3.49693707 77.8789194,2.09819352 C76.4652305,0.69913722 74.7908824,0 72.8569697,0 L7.14256117,0 C4.85104354,0 3.08756787,0.773726451 1.8524469,2.32117935 C0.617482302,3.868945 0,5.80357387 0,8.1249096 C0,9.99996091 0.818723052,12.0318529 2.45538733,14.2193346 C4.09189525,16.4069726 5.83347992,18.1259651 7.67842135,19.3758429 Z" id="Shape"></path>
                        <path d="M75.5350284,23.9212327 C65.7741675,30.5914962 58.362518,35.7753917 53.3036763,39.4718143 C51.6072842,40.733372 50.2311254,41.7181795 49.1742617,42.4238688 C48.117398,43.1300317 46.7118428,43.8511925 44.9555633,44.5870354 C43.1999093,45.3239834 41.5637173,45.6913523 40.0455801,45.6913523 L40.0000782,45.6913523 L39.9552017,45.6913523 C38.4373772,45.6913523 36.8002471,45.3239834 35.044593,44.5870354 C33.288939,43.8511925 31.8824456,43.1300317 30.8258946,42.4238688 C29.7696564,41.7181795 28.3930285,40.733372 26.6967928,39.4718143 C22.6787093,36.497184 15.2830089,31.3129727 4.5093789,23.9212327 C2.81251771,22.7801316 1.30954778,21.4721594 0,20 L0,55.7872872 C0,57.7717423 0.699103058,59.4687119 2.09809099,60.8810377 C3.4967662,62.2938371 5.17861645,63 7.1430163,63 L72.8574528,63 C74.8213835,63 76.5030774,62.2938371 77.901909,60.8810377 C79.3012097,59.4682383 80,57.7719002 80,55.7872872 L80,20 C78.720005,21.44169 77.2323587,22.7496622 75.5350284,23.9212327 Z" id="Shape"></path>
                    </g>
                </g>
            </g>
        </g>
    </g>
</svg>