<?xml version="1.0" encoding="UTF-8"?>
<svg width="240px" height="200px" viewBox="0 0 240 200" version="1.1" xmlns="http://www.w3.org/2000/svg" xmlns:xlink="http://www.w3.org/1999/xlink">
    <!-- Generator: Sketch 49 (51002) - http://www.bohemiancoding.com/sketch -->
    <title>Group</title>
    <desc>Created with Sketch.</desc>
    <defs></defs>
    <g id="Page-1" stroke="none" stroke-width="1" fill="none" fill-rule="evenodd">
        <g id="Artboard-2">
            <g id="Group">
                <rect id="Rectangle-3" fill="#2C3E50" x="0" y="0" width="240" height="200"></rect>
                <path d="M57,112.384 L51.944,112.384 C51.4,111.296 50.824,110.368 49.896,108.96 L41.64,96.512 C41.032,95.552 40.232,94.176 39.464,92.672 C39.496,93.12 39.496,93.12 39.592,94.304 C39.624,94.912 39.688,96.352 39.688,97.088 L39.688,107.584 C39.688,109.728 39.784,111.232 39.944,112.384 L35.272,112.384 C35.432,111.328 35.528,109.728 35.528,107.552 L35.528,91.04 C35.528,89.376 35.464,88.224 35.272,86.912 L40.264,86.912 C40.552,87.712 41.128,88.672 42.216,90.304 L50.312,102.496 C51.08,103.648 52.104,105.312 52.808,106.592 C52.68,105.344 52.584,103.424 52.584,102.08 L52.584,91.328 C52.584,89.44 52.52,88.128 52.328,86.912 L57,86.912 C56.808,88.192 56.744,89.376 56.744,91.328 L56.744,108.256 C56.744,110.048 56.808,111.264 57,112.384 Z M71.3893319,112.992 C65.5333319,112.992 61.8213319,109.216 61.8213319,103.232 C61.8213319,97.28 65.5333319,93.472 71.3573319,93.472 C77.1493319,93.472 80.8293319,97.248 80.8293319,103.168 C80.8293319,109.088 77.0853319,112.992 71.3893319,112.992 Z M71.3573319,96.8 C67.9973319,96.8 65.9493319,99.232 65.9493319,103.232 C65.9493319,107.168 67.9973319,109.6 71.3253319,109.6 C74.6533319,109.6 76.7013319,107.2 76.7013319,103.296 C76.7013319,99.168 74.7493319,96.8 71.3573319,96.8 Z M97.6399958,86.912 L102.503996,86.912 C102.311996,88.128 102.247996,89.12 102.247996,91.04 L102.247996,108.256 C102.247996,110.144 102.311996,111.168 102.503996,112.384 L97.6399958,112.384 C97.8319958,111.168 97.8959958,110.144 97.8959958,108.256 L97.8959958,91.04 C97.8959958,89.056 97.8319958,88.192 97.6399958,86.912 Z M112.573328,112.384 L108.061328,112.384 C108.221328,111.008 108.285328,109.952 108.285328,108.224 L108.285328,98.176 C108.285328,96.16 108.221328,95.232 108.061328,94.016 L112.349328,94.016 L112.349328,95.648 C112.349328,95.84 112.349328,96.32 112.317328,96.832 C113.245328,94.88 115.613328,93.632 118.269328,93.632 C119.997328,93.632 121.405328,94.112 122.397328,95.072 C122.973328,95.584 123.229328,96 123.613328,96.992 C124.701328,95.552 125.309328,94.976 126.301328,94.464 C127.357328,93.888 128.445328,93.632 129.885328,93.632 C131.933328,93.632 133.597328,94.272 134.685328,95.456 C135.741328,96.608 136.189328,98.048 136.189328,100.32 L136.189328,108.224 C136.189328,110.016 136.253328,111.072 136.445328,112.384 L131.773328,112.384 C131.965328,111.072 132.029328,110.112 132.029328,108.224 L132.029328,101.056 C132.029328,98.24 131.037328,96.96 128.893328,96.96 C127.837328,96.96 127.037328,97.248 126.269328,97.92 C125.149328,98.88 124.637328,99.904 124.253328,101.888 L124.253328,108.224 C124.253328,109.984 124.317328,111.072 124.477328,112.384 L119.869328,112.384 C120.061328,111.04 120.125328,110.048 120.125328,108.224 L120.125328,101.056 C120.125328,98.368 119.101328,97.024 117.021328,97.024 C115.677328,97.024 114.589328,97.568 113.725328,98.688 C113.021328,99.616 112.701328,100.352 112.349328,101.888 L112.349328,108.224 C112.349328,109.952 112.413328,110.912 112.573328,112.384 Z M153.87466,112.384 L153.87466,110.304 C152.59466,111.52 151.79466,111.968 150.48266,112.32 C149.55466,112.576 148.53066,112.704 147.50666,112.704 C143.60266,112.704 141.23466,110.688 141.23466,107.328 C141.23466,105.088 142.64266,103.072 144.85066,102.144 C146.93066,101.28 149.29866,100.96 153.87466,100.864 L153.87466,99.232 C153.87466,97.376 152.62666,96.416 150.19466,96.416 C148.91466,96.416 147.60266,96.768 146.86666,97.344 C146.25866,97.792 145.97066,98.24 145.58666,99.392 L141.49066,98.656 C142.22666,96.8 142.80266,95.968 144.01866,95.104 C145.58666,93.952 147.37866,93.472 150.13066,93.472 C153.20266,93.472 155.05866,94.016 156.43466,95.36 C157.52266,96.384 157.93866,97.6 157.93866,99.776 L157.93866,108.384 C157.93866,110.08 158.00266,110.944 158.19466,112.384 L153.87466,112.384 Z M153.87466,105.248 L153.87466,103.648 C147.76266,103.776 145.36266,104.832 145.36266,107.328 C145.36266,108.832 146.48266,109.76 148.27466,109.76 C149.97066,109.76 151.63466,109.12 152.72266,108.064 C153.49066,107.296 153.87466,106.368 153.87466,105.248 Z M162.951992,115.328 L166.151992,113.12 C167.399992,114.848 168.807992,115.552 171.111992,115.552 C173.575992,115.552 175.463992,114.688 176.359992,113.152 C176.903992,112.192 177.127992,111.072 177.191992,108.896 C175.591992,110.912 173.703992,111.808 170.919992,111.808 C165.831992,111.808 162.567992,108.32 162.567992,102.848 C162.567992,97.312 165.927992,93.728 171.111992,93.728 C173.959992,93.728 175.847992,94.592 177.223992,96.544 C177.159992,95.904 177.159992,95.84 177.159992,95.488 L177.159992,94.016 L181.447992,94.016 C181.287992,95.392 181.223992,96.288 181.223992,98.016 L181.223992,108.736 C181.223992,112.576 180.391992,115.04 178.535992,116.608 C176.935992,117.92 174.279992,118.656 170.983992,118.656 C167.239992,118.656 165.127992,117.792 162.951992,115.328 Z M166.759992,102.944 C166.759992,104.832 167.271992,106.4 168.231992,107.36 C169.031992,108.224 170.407992,108.8 171.623992,108.8 C173.383992,108.8 175.175992,107.776 176.071992,106.272 C176.679992,105.28 176.967992,104.096 176.967992,102.624 C176.967992,100.576 176.327992,98.976 175.047992,97.888 C174.151992,97.152 173.095992,96.736 171.943992,96.736 C168.743992,96.736 166.759992,99.136 166.759992,102.944 Z M204.029324,104.256 L190.109324,104.256 C190.269324,106.016 190.557324,106.912 191.293324,107.84 C192.221324,108.992 193.661324,109.632 195.293324,109.632 C196.861324,109.632 198.205324,109.056 199.133324,108.032 C199.517324,107.584 199.741324,107.232 200.061324,106.368 L203.837324,107.584 C203.101324,109.12 202.685324,109.728 201.885324,110.528 C200.221324,112.16 197.981324,112.992 195.293324,112.992 C189.629324,112.992 186.045324,109.216 186.045324,103.232 C186.045324,97.312 189.597324,93.44 195.069324,93.44 C198.813324,93.44 201.757324,95.296 203.037324,98.496 C203.645324,100.032 203.869324,101.184 203.965324,103.36 C203.965324,103.424 203.965324,103.52 204.029324,104.256 Z M190.205324,101.088 L199.869324,101.088 C199.645324,99.68 199.261324,98.816 198.461324,98.016 C197.597324,97.152 196.509324,96.736 195.005324,96.736 C192.509324,96.736 190.685324,98.4 190.205324,101.088 Z" id="No-Image" fill="#FFFFFF"></path>
            </g>
        </g>
    </g>
</svg>