<?xml version="1.0" encoding="UTF-8"?>
<svg width="72px" height="59px" viewBox="0 0 72 59" version="1.1" xmlns="http://www.w3.org/2000/svg" xmlns:xlink="http://www.w3.org/1999/xlink">
    <!-- Generator: Sketch 49 (51002) - http://www.bohemiancoding.com/sketch -->
    <title>twitter</title>
    <desc>Created with Sketch.</desc>
    <defs></defs>
    <g id="Page-1" stroke="none" stroke-width="1" fill="none" fill-rule="evenodd">
        <g id="PC" transform="translate(-722.000000, -3484.000000)">
            <g id="Contact" transform="translate(0.000000, 3178.000000)">
                <g id="twitter" transform="translate(718.000000, 304.000000)">
                    <g>
                        <rect id="base" x="0" y="0" width="80" height="63"></rect>
                        <g id="logo" transform="translate(4.000000, 2.000000)" fill="#000000" fill-rule="nonzero">
                            <path d="M22.64256,59 C49.81248,59 64.67328,36.2991679 64.67328,16.6131086 C64.67328,15.9683306 64.67328,15.326457 64.63008,14.6874878 C67.5211143,12.5786306 70.0167038,9.96747887 72,6.97629167 C69.3039717,8.18104415 66.4439883,8.97112046 63.51552,9.32014677 C66.5992627,7.45837084 68.9072357,4.53012013 70.00992,1.08034884 C67.1102136,2.81560124 63.9378608,4.03852058 60.62976,4.69633348 C56.0507984,-0.213870795 48.7748717,-1.41566056 42.8819019,1.76485888 C36.9889321,4.94537831 33.944472,11.7172272 35.45568,18.2831416 C23.5782597,17.6826545 12.5120902,12.025087 5.0112,2.71843345 C1.09043354,9.52532769 3.09308511,18.2333586 9.58464,22.6048968 C7.23381466,22.5346321 4.93424459,21.8950984 2.88,20.7402685 C2.88,20.8012611 2.88,20.865158 2.88,20.9290549 C2.88192422,28.0204305 7.83864428,34.1282271 14.7312,35.5324049 C12.5564244,36.1305383 10.2746321,36.2179732 8.06112,35.7879926 C9.99633003,41.8565234 15.5421347,46.013776 21.86208,46.1334844 C16.6312369,50.2793253 10.1694514,52.5299368 3.51648,52.5231761 C2.34116228,52.5209006 1.16698771,52.4491355 0,52.3082501 C6.75543153,56.6801834 14.6157506,58.9991778 22.64256,58.9883824" id="Shape"></path>
                        </g>
                    </g>
                </g>
            </g>
        </g>
    </g>
</svg>